<svg xmlns="http://www.w3.org/2000/svg" width="820" height="574" viewBox="0 0 820 574" font-family="'DejaVu Sans Mono', Menlo, Consolas, monospace" font-size="13">
<rect width="820" height="40" rx="8" fill="#161b22"/>
<circle cx="20" cy="20.0" r="6" fill="#f85149"/>
<circle cx="40" cy="20.0" r="6" fill="#d29922"/>
<circle cx="60" cy="20.0" r="6" fill="#3fb950"/>
<text x="410.0" y="24.0" fill="#8b949e" text-anchor="middle" font-size="12">evalforge — eval report (dual judge, regression guard)</text>
<rect width="820" height="534" y="40" fill="#0d1117"/>
<text x="40" y="79.0" fill="#58a6ff">$ python3 -m evalforge.cli --subject alpha-agent --judge ollama</text>
<text x="40" y="98.0" fill="#c9d1d9"> </text>
<text x="40" y="117.0" fill="#8b949e"># Evalforge Evaluation Report</text>
<text x="40" y="136.0" fill="#8b949e">- Subject : alpha-agent</text>
<text x="40" y="155.0" fill="#8b949e">- Judge   : ollama (in-network)</text>
<text x="40" y="174.0" fill="#8b949e">- Cases   : 10</text>
<text x="40" y="193.0" fill="#f85149">- Exit code: 1 (0 = pass, 1 = fail; WARN is non-fatal)</text>
<text x="40" y="212.0" fill="#c9d1d9"> </text>
<text x="40" y="231.0" fill="#f85149">## Verdict: FAIL</text>
<text x="40" y="250.0" fill="#c9d1d9"> </text>
<text x="40" y="269.0" fill="#8b949e">## Metrics</text>
<text x="40" y="288.0" fill="#8b949e">| metric             | value  |</text>
<text x="40" y="307.0" fill="#8b949e">|--------------------|--------|</text>
<text x="40" y="326.0" fill="#8b949e">| faithfulness       | 1.0000 |</text>
<text x="40" y="345.0" fill="#8b949e">| answer_relevance   | 0.7500 |</text>
<text x="40" y="364.0" fill="#8b949e">| answer_rate        | 0.8571 |</text>
<text x="40" y="383.0" fill="#8b949e">| correct_refusal    | 0.7000 |</text>
<text x="40" y="402.0" fill="#8b949e">| hallucination_rate | 0.5000 |</text>
<text x="40" y="421.0" fill="#c9d1d9"> </text>
<text x="40" y="440.0" fill="#8b949e">## Regression guard</text>
<text x="40" y="459.0" fill="#8b949e">| metric             | value  | threshold |       |</text>
<text x="40" y="478.0" fill="#8b949e">|--------------------|--------|-----------|-------|</text>
<text x="40" y="497.0" fill="#8b949e">| faithfulness       | 1.0000 | 0.7       | OK    |</text>
<text x="40" y="516.0" fill="#8b949e">| answer_relevance   | 0.7500 | 0.6       | OK    |</text>
<text x="40" y="535.0" fill="#8b949e">| answer_rate        | 0.8571 | 0.7       | OK    |</text>
<text x="40" y="554.0" fill="#f85149">| hallucination_rate | 0.5000 | 0.1       | BREACH|</text>
<rect width="820" height="574" rx="8" fill="none" stroke="#161b22" stroke-width="1.5"/></svg>